<svg width="190" height="250" viewBox="0 0 190 250" fill="none" xmlns="http://www.w3.org/2000/svg">
<path fill-rule="evenodd" clip-rule="evenodd" d="M50 0C50 24.8528 70.1472 45 95 45C119.853 45 140 24.8528 140 0H150C150 22.186 136.864 41.3039 117.945 50C136.864 58.6961 150 77.814 150 100C150 128.69 128.033 152.25 100 154.776V195H145V205H100V250H90V205H45V195H90V154.776C61.9675 152.25 40 128.69 40 100C40 77.814 53.1363 58.6961 72.0551 50C53.1363 41.3039 40 22.186 40 0H50ZM95 55C70.1472 55 50 75.1472 50 100C50 124.853 70.1472 145 95 145C119.853 145 140 124.853 140 100C140 75.1472 119.853 55 95 55Z" fill="#FFF4E3"/>
</svg>
