<svg width="60" height="60" viewBox="0 0 60 60" fill="none" xmlns="http://www.w3.org/2000/svg">
<path fill-rule="evenodd" clip-rule="evenodd" d="M30 58.2C45.5744 58.2 58.2 45.5744 58.2 30C58.2 14.4256 45.5744 1.8 30 1.8C14.4256 1.8 1.8 14.4256 1.8 30C1.8 45.5744 14.4256 58.2 30 58.2ZM30 60C46.5685 60 60 46.5685 60 30C60 13.4315 46.5685 0 30 0C13.4315 0 0 13.4315 0 30C0 46.5685 13.4315 60 30 60Z" fill="#FFF4E3"/>
<path fill-rule="evenodd" clip-rule="evenodd" d="M30 0.650871L36.6056 21.2635H57.9392L40.6799 33.9776L47.2805 54.5746L30 41.8449L12.7195 54.5746L19.3201 33.9776L2.0608 21.2635H23.3944L30 0.650871ZM22.8176 23.0635H7.5392L19.8997 32.1689L22.8176 23.0635ZM21.4289 33.2953L24.7078 23.0635H35.2922L38.5711 33.2953L30 39.6093L21.4289 33.2953ZM20.8492 35.104L16.1316 49.8254L28.4825 40.7271L20.8492 35.104ZM31.5175 40.7271L43.8684 49.8254L39.1508 35.104L31.5175 40.7271ZM40.1003 32.1689L52.4608 23.0635H37.1824L40.1003 32.1689ZM34.7154 21.2635H25.2846L30 6.54913L34.7154 21.2635Z" fill="#FFF4E3"/>
</svg>
