<svg width="100" height="100" viewBox="0 0 100 100" fill="none" xmlns="http://www.w3.org/2000/svg">
<path fill-rule="evenodd" clip-rule="evenodd" d="M50 97C75.9574 97 97 75.9574 97 50C97 24.0426 75.9574 3 50 3C24.0426 3 3 24.0426 3 50C3 75.9574 24.0426 97 50 97ZM50 100C77.6142 100 100 77.6142 100 50C100 22.3858 77.6142 0 50 0C22.3858 0 0 22.3858 0 50C0 77.6142 22.3858 100 50 100Z" fill="black"/>
<path fill-rule="evenodd" clip-rule="evenodd" d="M50 1.08479L61.0093 35.4392H96.5653L67.7999 56.6293L78.8008 90.9576L50 69.7415L21.1992 90.9576L32.2001 56.6293L3.43466 35.4392H38.9907L50 1.08479ZM38.0293 38.4392H12.5653L33.1661 53.6148L38.0293 38.4392ZM35.7148 55.4922L41.1796 38.4392H58.8204L64.2852 55.4922L50 66.0154L35.7148 55.4922ZM34.7487 58.5067L26.886 83.0424L47.4709 67.8785L34.7487 58.5067ZM52.5291 67.8785L73.114 83.0423L65.2513 58.5067L52.5291 67.8785ZM66.8339 53.6148L87.4347 38.4392H61.9707L66.8339 53.6148ZM57.859 35.4392H42.141L50 10.9152L57.859 35.4392Z" fill="black"/>
<path d="M59.5234 52.7882V53.88H52.6453V52.7882H57.4876V49.2496C57.4876 48.4618 57.3271 47.9052 57.0059 47.5799C56.6891 47.2545 56.1389 47.0918 55.3554 47.0918H52.9471V46H55.3683C56.55 46 57.3956 46.2526 57.905 46.7578C58.4145 47.263 58.6693 48.0979 58.6693 49.2625V52.7882H59.5234Z" fill="black"/>
<path d="M50.7315 46V50.1423H49.5498V46H50.7315Z" fill="black"/>
<path d="M42.2606 52.6598C42.115 53.0922 41.8838 53.4048 41.567 53.5974C41.2502 53.7858 40.7514 53.88 40.0706 53.88H40V52.7882H40.1092C40.4046 52.7882 40.6401 52.7326 40.8156 52.6213C40.9869 52.51 41.1089 52.3408 41.1817 52.1139C41.2545 51.8827 41.2909 51.5338 41.2909 51.0671V47.0918H40.0706V46H44.3286C45.5102 46 46.358 46.2526 46.8717 46.7578C47.3855 47.2587 47.6424 48.0936 47.6424 49.2625V53.88H46.4607V49.2496C46.4607 48.4618 46.3002 47.9052 45.9791 47.5799C45.6622 47.2545 45.1078 47.0918 44.3157 47.0918H42.4725V50.8295C42.4725 51.6173 42.4019 52.2274 42.2606 52.6598Z" fill="black"/>
</svg>
