<svg width="220" height="220" viewBox="0 0 220 220" fill="none" xmlns="http://www.w3.org/2000/svg">
<path fill-rule="evenodd" clip-rule="evenodd" d="M110 213.4C167.106 213.4 213.4 167.106 213.4 110C213.4 52.8938 167.106 6.6 110 6.6C52.8938 6.6 6.6 52.8938 6.6 110C6.6 167.106 52.8938 213.4 110 213.4ZM110 220C170.751 220 220 170.751 220 110C220 49.2487 170.751 0 110 0C49.2487 0 0 49.2487 0 110C0 170.751 49.2487 220 110 220Z" fill="#FFF4E3"/>
<path fill-rule="evenodd" clip-rule="evenodd" d="M110 2.38653L134.22 77.9663H212.444L149.16 124.584L173.362 200.107L110 153.431L46.6381 200.107L70.8402 124.584L7.55625 77.9663H85.7795L110 2.38653ZM83.6645 84.5663H27.6437L72.9655 117.953L83.6645 84.5663ZM78.5725 122.083L90.5951 84.5663H129.405L141.428 122.083L110 145.234L78.5725 122.083ZM76.4472 128.715L59.1492 182.693L104.436 149.333L76.4472 128.715ZM115.564 149.333L160.851 182.693L143.553 128.715L115.564 149.333ZM147.035 117.953L192.356 84.5663H136.336L147.035 117.953ZM127.29 77.9663H92.7102L110 24.0135L127.29 77.9663Z" fill="#FFF4E3"/>
<path d="M130.952 116.134V118.536H115.82V116.134H126.473V108.349C126.473 106.616 126.12 105.392 125.413 104.676C124.716 103.96 123.506 103.602 121.782 103.602H116.484V101.2H121.81C124.41 101.2 126.27 101.756 127.391 102.867C128.512 103.979 129.072 105.815 129.072 108.377V116.134H130.952Z" fill="#FFF4E3"/>
<path d="M111.609 101.2V110.313H109.01V101.2H111.609Z" fill="#FFF4E3"/>
<path d="M92.9733 115.852C92.6531 116.803 92.1444 117.491 91.4474 117.914C90.7504 118.329 89.6531 118.536 88.1554 118.536H88V116.134H88.2402C88.8901 116.134 89.4082 116.012 89.7944 115.767C90.1711 115.522 90.4396 115.15 90.5997 114.651C90.7598 114.142 90.8399 113.374 90.8399 112.348V103.602H88.1554V101.2H97.5228C100.123 101.2 101.988 101.756 103.118 102.867C104.248 103.969 104.813 105.806 104.813 108.377V118.536H102.214V108.349C102.214 106.616 101.86 105.392 101.154 104.676C100.457 103.96 99.2371 103.602 97.4946 103.602H93.4396V111.825C93.4396 113.558 93.2842 114.9 92.9733 115.852Z" fill="#FFF4E3"/>
</svg>
